<svg width="133" height="20" viewBox="0 0 133 20" fill="none" xmlns="http://www.w3.org/2000/svg">
<path d="M14.6094 0.109375C15.0365 0.109375 15.3385 0.1875 15.5156 0.34375C15.6927 0.5 15.7812 0.760417 15.7812 1.125V6.28125C15.7812 6.64583 15.6927 6.90625 15.5156 7.0625C15.3385 7.21875 15.0365 7.29688 14.6094 7.29688C14.1823 7.29688 13.8802 7.21875 13.7031 7.0625C13.526 6.90625 13.4375 6.64583 13.4375 6.28125C13.4375 5.57292 13.276 4.92708 12.9531 4.34375C12.6406 3.76042 12.1562 3.29688 11.5 2.95312C10.8438 2.59896 10.0312 2.42188 9.0625 2.42188C7.9375 2.42188 6.9375 2.71875 6.0625 3.3125C5.19792 3.90625 4.52083 4.75521 4.03125 5.85938C3.55208 6.96354 3.3125 8.25521 3.3125 9.73438C3.3125 11.2135 3.54167 12.5052 4 13.6094C4.45833 14.7031 5.10938 15.5469 5.95312 16.1406C6.79688 16.7344 7.78125 17.0312 8.90625 17.0312C9.9375 17.0312 10.9219 16.8802 11.8594 16.5781C12.7969 16.276 13.6406 15.8385 14.3906 15.2656C14.5677 15.1198 14.7604 15.0469 14.9688 15.0469C15.2812 15.0469 15.5573 15.25 15.7969 15.6562C15.9844 15.9688 16.0781 16.2448 16.0781 16.4844C16.0781 16.7969 15.9167 17.0677 15.5938 17.2969C14.625 17.974 13.5677 18.4844 12.4219 18.8281C11.2865 19.1719 10.1146 19.3438 8.90625 19.3438C7.28125 19.3438 5.85938 18.9479 4.64062 18.1562C3.43229 17.3542 2.49479 16.2292 1.82812 14.7812C1.17188 13.3333 0.84375 11.651 0.84375 9.73438C0.84375 7.82812 1.18229 6.15104 1.85938 4.70312C2.53646 3.24479 3.48438 2.11458 4.70312 1.3125C5.93229 0.510417 7.33333 0.109375 8.90625 0.109375C9.88542 0.109375 10.7552 0.276042 11.5156 0.609375C12.276 0.942708 12.9167 1.41667 13.4375 2.03125V1.125C13.4375 0.760417 13.526 0.5 13.7031 0.34375C13.8802 0.1875 14.1823 0.109375 14.6094 0.109375ZM35.1406 0.453125C35.4948 0.453125 35.7448 0.536458 35.8906 0.703125C36.0469 0.859375 36.125 1.13021 36.125 1.51562C36.125 1.90104 36.0469 2.17708 35.8906 2.34375C35.7448 2.5 35.4948 2.57812 35.1406 2.57812H34.0156V16.875H35.1406C35.4948 16.875 35.7448 16.9583 35.8906 17.125C36.0469 17.2812 36.125 17.5521 36.125 17.9375C36.125 18.3229 36.0469 18.599 35.8906 18.7656C35.7448 18.9219 35.4948 19 35.1406 19H30.2344C29.8802 19 29.625 18.9219 29.4688 18.7656C29.3229 18.599 29.25 18.3229 29.25 17.9375C29.25 17.5521 29.3229 17.2812 29.4688 17.125C29.625 16.9583 29.8802 16.875 30.2344 16.875H31.6719V10.5H23.8906V16.875H25.3281C25.6823 16.875 25.9323 16.9583 26.0781 17.125C26.2344 17.2812 26.3125 17.5521 26.3125 17.9375C26.3125 18.3229 26.2344 18.599 26.0781 18.7656C25.9323 18.9219 25.6823 19 25.3281 19H20.4219C20.0677 19 19.8125 18.9219 19.6562 18.7656C19.5104 18.599 19.4375 18.3229 19.4375 17.9375C19.4375 17.5521 19.5104 17.2812 19.6562 17.125C19.8125 16.9583 20.0677 16.875 20.4219 16.875H21.5469V2.57812H20.4219C20.0677 2.57812 19.8125 2.5 19.6562 2.34375C19.5104 2.17708 19.4375 1.90104 19.4375 1.51562C19.4375 1.13021 19.5104 0.859375 19.6562 0.703125C19.8125 0.536458 20.0677 0.453125 20.4219 0.453125H25.3281C25.6823 0.453125 25.9323 0.536458 26.0781 0.703125C26.2344 0.859375 26.3125 1.13021 26.3125 1.51562C26.3125 1.90104 26.2344 2.17708 26.0781 2.34375C25.9323 2.5 25.6823 2.57812 25.3281 2.57812H23.8906V8.375H31.6719V2.57812H30.2344C29.8802 2.57812 29.625 2.5 29.4688 2.34375C29.3229 2.17708 29.25 1.90104 29.25 1.51562C29.25 1.13021 29.3229 0.859375 29.4688 0.703125C29.625 0.536458 29.8802 0.453125 30.2344 0.453125H35.1406ZM47.375 0.453125C47.7917 0.453125 48.125 0.536458 48.375 0.703125C48.6354 0.859375 48.8281 1.11458 48.9531 1.46875L54.4688 16.875H55.4219C55.776 16.875 56.026 16.9583 56.1719 17.125C56.3281 17.2812 56.4062 17.5521 56.4062 17.9375C56.4062 18.3229 56.3281 18.599 56.1719 18.7656C56.026 18.9219 55.776 19 55.4219 19H49.8906C49.5365 19 49.2812 18.9219 49.125 18.7656C48.9792 18.599 48.9062 18.3229 48.9062 17.9375C48.9062 17.5521 48.9792 17.2812 49.125 17.125C49.2812 16.9583 49.5365 16.875 49.8906 16.875H52L50.7188 13.1562H43.1406L41.8438 16.875H43.7344C44.0885 16.875 44.3385 16.9583 44.4844 17.125C44.6406 17.2812 44.7188 17.5521 44.7188 17.9375C44.7188 18.3229 44.6406 18.599 44.4844 18.7656C44.3385 18.9219 44.0885 19 43.7344 19H38.5156C38.1615 19 37.9062 18.9219 37.75 18.7656C37.6042 18.599 37.5312 18.3229 37.5312 17.9375C37.5312 17.5521 37.6042 17.2812 37.75 17.125C37.9062 16.9583 38.1615 16.875 38.5156 16.875H39.3906L44.5625 2.57812H41.6406C41.2865 2.57812 41.0312 2.5 40.875 2.34375C40.7292 2.17708 40.6562 1.90104 40.6562 1.51562C40.6562 1.13021 40.7292 0.859375 40.875 0.703125C41.0312 0.536458 41.2865 0.453125 41.6406 0.453125H47.375ZM46.7969 2.57812L43.875 11.0312H50L47.0938 2.57812H46.7969ZM72.8594 0.453125C73.2135 0.453125 73.4635 0.536458 73.6094 0.703125C73.7656 0.859375 73.8438 1.13021 73.8438 1.51562V7.40625C73.8438 7.77083 73.7552 8.03125 73.5781 8.1875C73.401 8.34375 73.099 8.42188 72.6719 8.42188C72.2448 8.42188 71.9427 8.34375 71.7656 8.1875C71.5885 8.03125 71.5 7.77083 71.5 7.40625V2.57812H67.3281V16.875H71.0156C71.3698 16.875 71.6198 16.9583 71.7656 17.125C71.9219 17.2812 72 17.5521 72 17.9375C72 18.3229 71.9219 18.599 71.7656 18.7656C71.6198 18.9219 71.3698 19 71.0156 19H61.2969C60.9427 19 60.6875 18.9219 60.5312 18.7656C60.3854 18.599 60.3125 18.3229 60.3125 17.9375C60.3125 17.5521 60.3854 17.2812 60.5312 17.125C60.6875 16.9583 60.9427 16.875 61.2969 16.875H64.9844V2.57812H60.8125V7.40625C60.8125 7.77083 60.724 8.03125 60.5469 8.1875C60.3698 8.34375 60.0677 8.42188 59.6406 8.42188C59.2135 8.42188 58.9115 8.34375 58.7344 8.1875C58.5573 8.03125 58.4688 7.77083 58.4688 7.40625V1.51562C58.4688 1.13021 58.5417 0.859375 58.6875 0.703125C58.8438 0.536458 59.099 0.453125 59.4531 0.453125H72.8594ZM92.0469 0.453125C92.401 0.453125 92.651 0.536458 92.7969 0.703125C92.9531 0.859375 93.0312 1.13021 93.0312 1.51562V7.40625C93.0312 7.77083 92.9427 8.03125 92.7656 8.1875C92.5885 8.34375 92.2865 8.42188 91.8594 8.42188C91.4323 8.42188 91.1302 8.34375 90.9531 8.1875C90.776 8.03125 90.6875 7.77083 90.6875 7.40625V2.57812H86.5156V16.875H90.2031C90.5573 16.875 90.8073 16.9583 90.9531 17.125C91.1094 17.2812 91.1875 17.5521 91.1875 17.9375C91.1875 18.3229 91.1094 18.599 90.9531 18.7656C90.8073 18.9219 90.5573 19 90.2031 19H80.4844C80.1302 19 79.875 18.9219 79.7188 18.7656C79.5729 18.599 79.5 18.3229 79.5 17.9375C79.5 17.5521 79.5729 17.2812 79.7188 17.125C79.875 16.9583 80.1302 16.875 80.4844 16.875H84.1719V2.57812H80V7.40625C80 7.77083 79.9115 8.03125 79.7344 8.1875C79.5573 8.34375 79.2552 8.42188 78.8281 8.42188C78.401 8.42188 78.099 8.34375 77.9219 8.1875C77.7448 8.03125 77.6562 7.77083 77.6562 7.40625V1.51562C77.6562 1.13021 77.7292 0.859375 77.875 0.703125C78.0312 0.536458 78.2865 0.453125 78.6406 0.453125H92.0469ZM110.953 12.2812C111.38 12.2812 111.682 12.3594 111.859 12.5156C112.036 12.6719 112.125 12.9323 112.125 13.2969V17.9375C112.125 18.3229 112.047 18.599 111.891 18.7656C111.745 18.9219 111.495 19 111.141 19H97.1719C96.8177 19 96.5625 18.9219 96.4062 18.7656C96.2604 18.599 96.1875 18.3229 96.1875 17.9375C96.1875 17.5521 96.2604 17.2812 96.4062 17.125C96.5625 16.9583 96.8177 16.875 97.1719 16.875H98.7656V2.57812H97.1719C96.8177 2.57812 96.5625 2.5 96.4062 2.34375C96.2604 2.17708 96.1875 1.90104 96.1875 1.51562C96.1875 1.13021 96.2604 0.859375 96.4062 0.703125C96.5625 0.536458 96.8177 0.453125 97.1719 0.453125H110.828C111.182 0.453125 111.432 0.536458 111.578 0.703125C111.734 0.859375 111.812 1.13021 111.812 1.51562V5.48438C111.812 5.84896 111.724 6.10938 111.547 6.26562C111.37 6.42188 111.068 6.5 110.641 6.5C110.214 6.5 109.911 6.42188 109.734 6.26562C109.557 6.10938 109.469 5.84896 109.469 5.48438V2.57812H101.109V8.375H105.141V6.95312C105.141 6.58854 105.219 6.32812 105.375 6.17188C105.542 6.01562 105.833 5.9375 106.25 5.9375C106.667 5.9375 106.953 6.01562 107.109 6.17188C107.276 6.32812 107.359 6.58854 107.359 6.95312V11.9219C107.359 12.2865 107.276 12.5469 107.109 12.7031C106.953 12.8594 106.667 12.9375 106.25 12.9375C105.833 12.9375 105.542 12.8594 105.375 12.7031C105.219 12.5469 105.141 12.2865 105.141 11.9219V10.5H101.109V16.875H109.781V13.2969C109.781 12.9323 109.87 12.6719 110.047 12.5156C110.224 12.3594 110.526 12.2812 110.953 12.2812ZM124.266 0.453125C125.568 0.453125 126.682 0.671875 127.609 1.10938C128.547 1.54688 129.255 2.16146 129.734 2.95312C130.224 3.74479 130.469 4.66667 130.469 5.71875C130.469 6.90625 130.083 7.91146 129.312 8.73438C128.542 9.55729 127.484 10.1198 126.141 10.4219C126.724 10.651 127.208 11.0208 127.594 11.5312C127.917 11.9583 128.193 12.3854 128.422 12.8125C128.651 13.2292 128.906 13.7448 129.188 14.3594C129.479 14.9948 129.703 15.4583 129.859 15.75C130.266 16.5 130.734 16.875 131.266 16.875H131.703C132.057 16.875 132.307 16.9583 132.453 17.125C132.609 17.2812 132.688 17.5521 132.688 17.9375C132.688 18.3229 132.609 18.599 132.453 18.7656C132.307 18.9219 132.057 19 131.703 19H130.578C129.953 19 129.422 18.8385 128.984 18.5156C128.557 18.1823 128.141 17.6198 127.734 16.8281C127.505 16.3698 127.224 15.7656 126.891 15.0156C126.578 14.3281 126.323 13.7969 126.125 13.4219C125.938 13.0365 125.708 12.6562 125.438 12.2812C125.125 11.8438 124.75 11.5156 124.312 11.2969C123.875 11.0677 123.349 10.9531 122.734 10.9531H120.609V16.875H122.641C122.995 16.875 123.245 16.9583 123.391 17.125C123.547 17.2812 123.625 17.5521 123.625 17.9375C123.625 18.3229 123.547 18.599 123.391 18.7656C123.245 18.9219 122.995 19 122.641 19H116.359C116.005 19 115.75 18.9219 115.594 18.7656C115.448 18.599 115.375 18.3229 115.375 17.9375C115.375 17.5521 115.448 17.2812 115.594 17.125C115.75 16.9583 116.005 16.875 116.359 16.875H118.266V2.57812H116.359C116.005 2.57812 115.75 2.5 115.594 2.34375C115.448 2.17708 115.375 1.90104 115.375 1.51562C115.375 1.13021 115.448 0.859375 115.594 0.703125C115.75 0.536458 116.005 0.453125 116.359 0.453125H124.266ZM120.609 8.82812H123.781C126.594 8.82812 128 7.79167 128 5.71875C128 4.71875 127.646 3.94792 126.938 3.40625C126.229 2.85417 125.229 2.57812 123.938 2.57812H120.609V8.82812Z" fill="#16425B"/>
</svg>
